<?xml version="1.0" standalone="no"?>
<!DOCTYPE svg PUBLIC "-//W3C//DTD SVG 20010904//EN"
 "http://www.w3.org/TR/2001/REC-SVG-20010904/DTD/svg10.dtd">
<svg version="1.0" xmlns="http://www.w3.org/2000/svg"
 width="128.000000pt" height="128.000000pt" viewBox="0 0 128.000000 128.000000"
 preserveAspectRatio="xMidYMid meet">

<g transform="translate(0.000000,128.000000) scale(0.100000,-0.100000)"
fill="#000000" stroke="none">
<path d="M677 1019 c-9 -5 -40 -44 -67 -85 l-51 -74 -29 21 c-50 37 -71 23
-158 -108 l-77 -116 -11 49 c-6 32 -16 50 -26 52 -19 4 -22 -6 -58 -173 -19
-89 -29 -110 -85 -197 -46 -69 -71 -97 -87 -100 -13 -2 -23 -10 -23 -18 0 -13
77 -15 635 -15 558 0 635 2 635 15 0 8 -10 16 -23 18 -17 3 -51 46 -133 168
-94 142 -112 174 -125 234 -16 69 -37 91 -51 54 -4 -10 -35 30 -99 125 -105
157 -124 175 -167 150z m83 -99 c22 -32 40 -63 40 -68 0 -5 -11 -19 -25 -32
l-24 -23 -36 32 c-20 17 -39 31 -42 31 -4 0 -22 -14 -40 -32 -24 -23 -36 -29
-44 -21 -8 8 3 33 42 89 54 82 68 96 81 88 4 -3 26 -32 48 -64z m-219 -121
l41 -61 -25 -26 c-26 -25 -27 -25 -47 -7 -20 18 -21 18 -58 -18 l-37 -36 -24
20 -24 19 57 85 c31 47 60 85 66 85 5 0 28 -28 51 -61z m-257 -288 c14 -63 26
-118 26 -122 0 -5 -25 -9 -56 -9 -53 0 -56 1 -51 23 3 12 15 68 28 125 12 56
24 101 25 99 1 -1 14 -53 28 -116z m706 -1 c11 -52 23 -103 26 -112 5 -16 -2
-18 -54 -18 l-59 0 24 108 c26 117 34 142 39 127 2 -5 13 -53 24 -105z m-580
-25 c12 -43 24 -85 27 -92 4 -9 -6 -13 -35 -13 -42 0 -52 10 -52 57 0 26 30
137 35 131 1 -2 13 -39 25 -83z"/>
</g>
</svg>
